<svg id="Layer_1" data-name="Layer 1" xmlns="http://www.w3.org/2000/svg" viewBox="0 0 459 90"><title>Artboard 2</title><path d="M29,41.1H16.59V34.76H35.33v35.7H32.16l-1.49-5.13c-1.86,3.82-6.52,6.15-11.37,6.15C5.69,71.48,0,55.26,0,35.78S5.69.09,19.3.09C28.62.09,35,6.33,35,18.92H28.9c-.56-8.95-5.13-12.3-9.6-12.3C12,6.61,6.71,16,6.71,35.78S12,64.86,19.3,64.86c4.47,0,9.69-2.42,9.69-13.23Z"/><path d="M55,70.46H48.65V19.38C48.65,7,55.92.09,64.87.09S81.09,7,81.09,19.38V70.46H74.75V45.2H55ZM74.75,19.38c0-8.85-4.57-13-9.88-13S55,10.53,55,19.38V38.86H74.75Z"/><path d="M111.47,71.48c-11.18,0-19.57-8.11-19.57-21.25h6.43c0,9.13,6.24,14.91,13.14,14.91,8.85,0,13-6.06,13-12.68,0-16.22-31.32-13.14-31.32-35.32C93.2,7.08,101.5.09,111.47.09c10.25,0,18.27,7,18.27,18.83H123.4c0-6.62-4.75-12.49-11.93-12.49-7.64,0-11.74,5.13-11.74,10.72C99.72,32.52,131,30.38,131,52.47,131,62.53,124.14,71.48,111.47,71.48Z"/><path d="M136.72,7.36V1h42.69V7.36H161.23v63.1H154.9V7.36Z"/><path d="M225.08,70.46h-7l-12.77-27a30.56,30.56,0,0,1-4.29.37h-5.87V70.46h-6.34V1H201a21.48,21.48,0,0,1,21.34,21.44,21.19,21.19,0,0,1-11,18.64Zm-29.92-33H201a15.05,15.05,0,0,0,0-30.1h-5.87Z"/><path d="M251.26.09c13.61,0,18.27,16.12,18.27,35.7s-4.66,35.7-18.27,35.7S233,55.26,233,35.78,237.66.09,251.26.09Zm0,64.78c8.39,0,11.56-12.49,11.56-29.08S259.65,6.71,251.26,6.71,239.71,19.1,239.71,35.78,242.88,64.86,251.26,64.86Z"/><path d="M308.49,18.92c-.56-8.95-5.13-12.3-9.6-12.3-7.27,0-12.58,9.41-12.58,29.17s5.31,29.08,12.58,29.08c4.47,0,9.32-3.17,9.69-13.23h6.24c0,13-6.34,19.85-15.94,19.85-13.61,0-19.29-16.22-19.29-35.7S285.28.09,298.89.09c9.32,0,15.75,6.24,15.75,18.83Z"/><path d="M334.58,1V52.09c0,8.85,4.57,13,9.88,13s9.88-4.2,9.88-13V1h6.34V52.09c0,12.4-7.27,19.39-16.22,19.39s-16.22-7-16.22-19.39V1Z"/><path d="M383.51,64.12h27.77v6.34H377.17V1h6.34Z"/><path d="M416.31,7.36V1H459V7.36H440.83v83.1h-6.34V7.36Z"/></svg>